<svg xmlns="http://www.w3.org/2000/svg" width="400" height="400" viewBox="0 0 200 200" role="img" aria-label="Emblem of the First Turkish Martyr of Bosnia">
  <defs>
    <radialGradient id="bg" cx="50%" cy="38%" r="75%">
      <stop offset="0%" stop-color="#F5F3EC"/>
      <stop offset="100%" stop-color="#E3DFD1"/>
    </radialGradient>
  </defs>
  <rect width="200" height="200" fill="url(#bg)"/>
  <circle cx="100" cy="100" r="92" fill="none" stroke="#683A1D" stroke-opacity="0.25" stroke-width="3"/>
  <circle cx="100" cy="100" r="82" fill="none" stroke="#683A1D" stroke-opacity="0.12" stroke-width="2"/>
  <path d="M100 30 104 96 170 100 104 104 100 170 96 104 30 100 96 96Z" fill="#683A1D" fill-opacity="0.08"/>
  <g>
    <path d="M100 78 121 84 127 105 121 126 100 132 79 126 73 105 79 84Z" fill="#683A1D"/>
    <path d="M100 92 109 95 112 104 109 113 100 116 91 113 88 104 91 95Z" fill="#C68958"/>
    <circle cx="100" cy="105" r="44" fill="none" stroke="#683A1D" stroke-opacity="0.35" stroke-width="3"/>
    <path d="M58 92c-8-2-10-14-2-18 8 6 18 6 26 0-8 4-6 16 2 18l-26 0ZM142 92c-8-2-10-14-2-18 8 6 18 6 26 0-8 4-6 16 2 18l-26 0Z" fill="none" stroke="#683A1D" stroke-width="2.5" stroke-linecap="round"/>
  </g>
</svg>